# AST/ASF file generated using VICON BodyLanguage
# -----------------------------------------------
:version 1.10
:name VICON
:units
  mass 1.0
  length 0.45
  angle deg
:documentation
   .ast/.asf automatically generated from VICON data using
   VICON BodyBuilder and BodyLanguage model FoxedUp or BRILLIANT.MOD
:root
   order TX TY TZ RX RY RZ
   axis XYZ
   position 0 0 0  
   orientation 0 0 0 
:bonedata
  begin
     id 1 
     name lhipjoint
     direction 0.693937 -0.600361 0.397515 
     length 2.37164 
     axis 0 0 0  XYZ
  end
  begin
     id 2 
     name lfemur
     direction 0.34202 -0.939693 0  
     length 6.18497  
     axis 0 0 20  XYZ
    dof rx ry rz
    limits (-160.0 20.0)
           (-70.0 70.0)
           (-60.0 70.0)
  end
  begin
     id 3 
     name ltibia
     direction 0.34202 -0.939693 0   
     length 6.91601   
     axis 0 0 20   XYZ
    dof rx
    limits (-10.0 170.0)
  end
  begin
     id 4 
     name lfoot
     direction 0.0978718 -0.2689 0.958182   
     length 1.81453   
     axis -90 7.62852e-016 20   XYZ
    dof rx rz
    limits (-45.0 90.0)
           (-70.0 20.0)
  end
  begin
     id 5 
     name ltoes
     direction 1.53569e-011 -4.21951e-011 1   
     length 0.912052   
     axis -90 7.62852e-016 20   XYZ
    dof rx
    limits (-90.0 20.0)
  end
  begin
     id 6 
     name rhipjoint
     direction -0.643996 -0.637876 0.422354   
     length 2.23216  
     axis 0 0 0  XYZ 
  end
  begin
     id 7 
     name rfemur
     direction -0.34202 -0.939693 0   
     length 6.15404   
     axis 0 0 -20   XYZ
    dof rx ry rz
    limits (-160.0 20.0)
           (-70.0 70.0)
           (-70.0 60.0)
  end
  begin
     id 8 
     name rtibia
     direction -0.34202 -0.939693 0   
     length 6.86744   
     axis 0 0 -20   XYZ
    dof rx
    limits (-10.0 170.0)
 end
 begin
     id 9 
     name rfoot
     direction -0.118701 -0.326127 0.937844   
     length 1.9243  
     axis -90 -7.62852e-016 -20   XYZ
    dof rx rz
    limits (-45.0 90.0)
           (-20.0 70.0)
  end
  begin
     id 10 
     name rtoes
     direction -1.5356e-011 -4.2181e-011 1   
     length 0.958865   
     axis -90 -7.62852e-016 -20   XYZ
    dof rx
    limits (-90.0 20.0)
  end
  begin
     id 11 
     name lowerback
     direction 0.0310826 0.968686 -0.246334   
     length 2.00021   
     axis 0 0 0   XYZ
    dof rx ry rz
    limits (-20.0 45.0)
           (-30.0 30.0)
           (-30.0 30.0)
  end
  begin
     id 12 
     name upperback
     direction -0.0152834 0.999474 -0.0286152   
     length 2.03728   
     axis 0 0 0   XYZ
    dof rx ry rz
    limits (-20.0 45.0)
           (-30.0 30.0)
           (-30.0 30.0)
  end
  begin
     id 13 
     name thorax
     direction -0.0323701 0.996236 0.0804149   
     length 2.16   
     axis 0 0 0   XYZ
    dof rx ry rz
    limits (-20.0 45.0)
           (-30.0 30.0)
           (-30.0 30.0)
  end
  begin
     id 14 
     name lowerneck
     direction 0.0307935 0.982251 0.185027   
     length 1.43558   
     axis 0 0 0   XYZ
    dof rx ry rz
    limits (-20.0 45.0)
           (-30.0 30.0)
           (-30.0 30.0)
  end
  begin
     id 15 
     name upperneck
     direction -0.0927153 0.994775 0.0427454   
     length 1.44603   
     axis 0 0 0   XYZ
    dof rx ry rz
    limits (-20.0 45.0)
           (-30.0 30.0)
           (-30.0 30.0)
  end
  begin
     id 16
     name head
     direction -0.0341265 0.999406 -0.00472033  
     length 1.45931  
     axis 0 0 0   XYZ
    dof rx ry rz
    limits (-20.0 45.0)
           (-30.0 30.0)
           (-30.0 30.0)
  end
  begin
     id 17 
     name lclavicle
     direction 0.820755 0.555306 -0.134151  
     length 2.66075  
     axis 0 0 0   XYZ
    dof ry rz
    limits (-20.0 10.0)
           (0.0 20.0)
  end
  begin
     id 18 
     name lhumerus
     direction 1 -4.48971e-011 5.24853e-027   
     length 5.0546   
     axis -180 -30 -90   XYZ
    dof rx ry rz
    limits (-60.0 90.0)
           (-90.0 90.0)
           (-90.0 90.0)
  end
  begin
     id 19
     name lradius
     direction 1 -4.48971e-011 2.76575e-028   
     length 3.39013   
     axis -180 -30 -90   XYZ
    dof rx
    limits (-10.0 170.0)
  end
  begin
     id 20
     name lwrist
     direction 1 -4.48939e-011 -2.27826e-027   
     length 1.69507   
     axis 2.17013e-015 90 90   XYZ
    dof ry
    limits (-180.0 0.0)
 end
  begin
     id 21 
     name lhand
     direction 1 -4.49009e-011 -4.55652e-027   
     length 0.572425   
     axis 2.90745e-015 90 90   XYZ
    dof rx rz
    limits (-90.0 90.0)
           (-45.0 45.0)
  end
  begin
     id 22 
     name lfingers
     direction 1 -4.48955e-011 -9.11303e-027   
     length 0.461504   
     axis 5.81489e-015 90 90   XYZ
    dof rx
    limits (0.0 90.0)
  end
  begin
     id 23
     name lthumb
     direction 0.707107 -6.34929e-011 0.707107   
     length 0.66263   
     axis -90 45 2.85299e-015   XYZ
    dof rx rz
    limits (-45.0 45.0)
           (-45.0 45.0)
  end
  begin
     id 24 
     name rclavicle
     direction -0.754477 0.632921 -0.173712   
     length 2.73081  
     axis 0 0 0   XYZ 
    dof ry rz
    limits (-10.0 20.0)
           (-20.0 0.0)
  end
  begin
     id 25 
     name rhumerus
     direction -1 -4.48969e-011 5.1496e-027  
     length 5.0701   
     axis -180 30 90   XYZ
    dof rx ry rz
    limits (-90.0 60.0)
           (-90.0 90.0)
           (-90.0 90.0)
  end
  begin
     id 26 
     name rradius
     direction -1 -4.48967e-011 -7.15624e-028   
     length 3.14957   
     axis -180 30 90   XYZ
    dof rx
    limits (-10.0 170.0)
  end
  begin
     id 27 
     name rwrist
     direction -1 -4.48938e-011 -2.27826e-027   
     length 1.57479   
     axis 2.17013e-015 -90 -90   XYZ
    dof ry
    limits (-180.0 0.0)
  end
  begin
     id 28
     name rhand
     direction -1 -4.49008e-011 -4.55652e-027   
     length 0.718191   
     axis 2.90745e-015 -90 -90   XYZ
    dof rx rz
    limits (-90.0 90.0)
           (-45.0 45.0)
  end
  begin
     id 29
     name rfingers
     direction -1 -4.48953e-011 -9.11303e-027   
     length 0.579024   
     axis 5.81489e-015 -90 -90   XYZ
    dof rx
    limits (0.0 90.0)
  end
  begin
     id 30
     name rthumb
     direction -0.707107 -6.34937e-011 0.707107   
     length 0.831366   
     axis -90 -45 -2.85299e-015   XYZ
    dof rx rz
    limits (-45.0 45.0)
           (-45.0 45.0)
  end
:hierarchy
  begin
    root lhipjoint rhipjoint lowerback
    lhipjoint lfemur
    lfemur ltibia
    ltibia lfoot
    lfoot ltoes
    rhipjoint rfemur
    rfemur rtibia
    rtibia rfoot
    rfoot rtoes
    lowerback upperback
    upperback thorax
    thorax lowerneck lclavicle rclavicle
    lowerneck upperneck
    upperneck head
    lclavicle lhumerus
    lhumerus lradius
    lradius lwrist
    lwrist lhand lthumb
    lhand lfingers
    rclavicle rhumerus
    rhumerus rradius
    rradius rwrist
    rwrist rhand rthumb
    rhand rfingers
  end

#!OML:ASF H:\Male1\Project 1\Capture day 1\Session 1\Male1.ASF
:FULLY-SPECIFIED
:DEGREES
90
root 13.5851 15.0842 2.37644 24.9431 -86.6343 -28.0316
lowerback 6.30687 3.35885 1.78037
upperback 5.42524 4.4024 -2.30466
thorax 2.40098 2.23599 -3.54763
lowerneck -11.8301 2.82872 4.82886
upperneck 25.1452 2.18562 1.00384
head 10.0012 1.41337 -0.232783
rclavicle 2.72335e-014 -2.8625e-014
rhumerus -29.0752 13.4861 -94.8529
rradius 42.0613
rwrist -22.506
rhand -17.7081 2.23659
rfingers 7.12502
rthumb 8.55205 -27.5702
lclavicle 2.72335e-014 -2.8625e-014
lhumerus -42.8974 21.5571 66.7063
lradius 18.4237
lwrist -20.4478
lhand -15.715 13.5925
lfingers 7.12502
lthumb 10.4751 43.3115
rfemur 15.8288 3.09172 25.5289
rtibia 35.8515
rfoot -4.7306 -17.0187
rtoes -25.1721
lfemur -22.6 -11.0781 -17.1481
ltibia 34.1896
lfoot -12.8991 11.9339
ltoes -8.15135
91
root 13.2605 15.1044 2.47279 15.729 -87.2248 -18.974
lowerback 6.54011 3.38051 1.05577
upperback 5.45394 4.39171 -2.50809
thorax 2.25951 2.20587 -3.36812
lowerneck -11.649 2.96916 4.98287
upperneck 25.2111 2.36482 0.940266
head 9.99802 1.50033 -0.261625
rclavicle 5.18828e-014 -3.10104e-014
rhumerus -29.3496 13.1517 -94.8009
rradius 42.1122
rwrist -22.6743
rhand -17.806 1.99712
rfingers 7.12502
rthumb 8.45753 -27.8135
lclavicle 5.18828e-014 -3.10104e-014
lhumerus -41.9274 21.2202 67.6774
lradius 18.7623
lwrist -19.4224
lhand -15.7456 13.8436
lfingers 7.12502
lthumb 10.4456 43.5641
rfemur 12.3874 2.36379 23.9766
rtibia 42.6708
rfoot -2.85402 -17.0799
rtoes -23.9783
lfemur -20.8899 -10.3046 -18.5419
ltibia 34.109
lfoot -13.3241 11.7711
ltoes -8.07306
92
root 12.9424 15.1246 2.56476 -0.586097 -87.6461 -2.82299
lowerback 6.81291 3.36751 0.205106
upperback 5.52288 4.32094 -2.72467
thorax 2.12701 2.14123 -3.13086
lowerneck -11.4451 3.11558 5.14937
upperneck 25.1483 2.56416 0.855557
head 9.94543 1.59546 -0.298501
rclavicle -5.40694e-014 2.8625e-014
rhumerus -29.5607 12.8062 -94.7246
rradius 42.1493
rwrist -22.779
rhand -17.7785 1.74259
rfingers 7.12502
rthumb 8.48412 -28.067
lclavicle -5.40694e-014 2.8625e-014
lhumerus -40.6923 20.3899 69.094
lradius 19.2709
lwrist -17.8584
lhand -15.915 14.1371
lfingers 7.12502
lthumb 10.2822 43.8658
rfemur 8.84903 1.71199 22.5019
rtibia 49.0799
rfoot -2.01842 -17.6814
rtoes -22.6235
lfemur -19.0439 -9.62496 -20.0185
ltibia 33.7446
lfoot -13.8792 11.6311
ltoes -8.19501
93
root 12.6284 15.1469 2.65307 -21.5602 -87.704 17.9853
lowerback 7.07066 3.31044 -0.692584
upperback 5.63661 4.18252 -2.92839
thorax 2.04467 2.04054 -2.84834
lowerneck -11.2157 3.26728 5.319
upperneck 24.9961 2.78697 0.73269
head 9.85755 1.69766 -0.34737
rclavicle -2.42517e-014 -6.36111e-015
rhumerus -29.7179 12.4669 -94.6204
rradius 42.16
rwrist -22.8033
rhand -17.714 1.49008
rfingers 7.12502
rthumb 8.54638 -28.317
lclavicle -2.42517e-014 -6.36111e-015
lhumerus -39.2213 19.1475 70.8232
lradius 19.8622
lwrist -16.0753
lhand -16.2298 14.4081
lfingers 7.12502
lthumb 9.97844 44.1516
rfemur 5.24862 1.10393 21.1758
rtibia 54.9148
rfoot -2.33938 -18.5955
rtoes -21.21
lfemur -17.0918 -9.10111 -21.5106
ltibia 33.1368
lfoot -14.5086 11.505
ltoes -8.42948
94
root 12.3181 15.1704 2.73744 -38.6596 -87.4057 34.9318
lowerback 7.28959 3.20779 -1.55399
upperback 5.78225 3.98228 -3.08851
thorax 2.01879 1.90872 -2.53383
lowerneck -10.9548 3.41859 5.47485
upperneck 24.8004 3.02783 0.565616
head 9.74968 1.8023 -0.408127
rclavicle -1.43125e-014 1.90833e-014
rhumerus -29.8409 12.1557 -94.4873
rradius 42.1216
rwrist -22.7733
rhand -17.7207 1.25193
rfingers 7.12502
rthumb 8.53992 -28.5554
lclavicle -1.43125e-014 1.90833e-014
lhumerus -37.557 17.5542 72.7413
lradius 20.4807
lwrist -14.3254
lhand -16.7655 14.4648
lfingers 7.12502
lthumb 9.46158 44.2324
rfemur 1.60498 0.558376 20.1016
rtibia 60.0183
rfoot -3.65019 -19.536
rtoes -19.5099
lfemur -15.0973 -8.75507 -22.9244
ltibia 32.3588
lfoot -15.1506 11.4295
ltoes -8.59529
95
root 12.0112 15.1933 2.81796 -48.3037 -86.9756 44.4356
lowerback 7.46746 3.06662 -2.27507
upperback 5.94448 3.73898 -3.1812
thorax 2.04214 1.75832 -2.22168
lowerneck -10.6575 3.56145 5.60952
upperneck 24.5985 3.27414 0.355877
head 9.63406 1.90318 -0.480431
rclavicle -2.66371e-014 1.11319e-014
rhumerus -29.9361 11.862 -94.3279
rradius 41.9796
rwrist -22.7201
rhand -17.8412 1.09134
rfingers 7.12502
rthumb 8.42356 -28.7207
lclavicle -2.66371e-014 1.11319e-014
lhumerus -35.7469 15.676 74.7196
lradius 21.0821
lwrist -12.8019
lhand -17.4853 14.3156
lfingers 7.12502
lthumb 8.767 44.1135
rfemur -2.04273 0.125719 19.3874
rtibia 64.2609
rfoot -5.52201 -20.2341
rtoes -17.8132
lfemur -13.1016 -8.56219 -24.1605
ltibia 31.4947
lfoot -15.7866 11.4355
ltoes -8.60168
96
root 11.7073 15.214 2.89429 -52.3659 -86.5733 48.3828
lowerback 7.61221 2.89192 -2.80636
upperback 6.09667 3.46432 -3.20547
thorax 2.08555 1.59768 -1.94013
lowerneck -10.3214 3.68854 5.72241
upperneck 24.421 3.50898 0.121709
head 9.52058 1.99444 -0.559751
rclavicle -4.59193e-014 1.35174e-014
rhumerus -30.017 11.5424 -94.1506
rradius 41.6847
rwrist -22.6611
rhand -18.0493 1.06659
rfingers 7.12502
rthumb 8.22277 -28.7534
lclavicle -4.59193e-014 1.35174e-014
lhumerus -33.852 13.5602 76.6467
lradius 21.6598
lwrist -11.5621
lhand -18.2242 14.2291
lfingers 7.12502
lthumb 8.05395 44.0556
rfemur -5.66733 -0.151963 19.0716
rtibia 67.5683
rfoot -7.47767 -20.5721
rtoes -16.8341
lfemur -11.1634 -8.49273 -25.1749
ltibia 30.6379
lfoot -16.4203 11.5086
ltoes -8.43608
97
root 11.4057 15.2301 2.96638 -53.3387 -86.247 49.2709
lowerback 7.72981 2.69981 -3.17072
upperback 6.22113 3.17903 -3.17624
thorax 2.12572 1.43747 -1.69386
lowerneck -9.94779 3.79285 5.80256
upperneck 24.2886 3.71421 -0.100816
head 9.41514 2.07045 -0.633798
rclavicle 2.24627e-014 -6.36111e-015
rhumerus -30.1006 11.1611 -93.9556
rradius 41.2269
rwrist -22.6084
rhand -18.2682 1.1894
rfingers 7.12502
rthumb 8.01149 -28.6388
lclavicle 2.24627e-014 -6.36111e-015
lhumerus -31.952 11.2183 78.4559
lradius 22.2812
lwrist -10.5017
lhand -18.9268 14.2298
lfingers 7.12502
lthumb 7.37582 44.0812
rfemur -9.23205 -0.220138 19.1002
rtibia 69.9196
rfoot -9.28454 -20.5791
rtoes -16.7033
lfemur -9.31751 -8.50567 -25.9973
ltibia 29.8606
lfoot -17.0566 11.6361
ltoes -8.21723
98
root 11.1057 15.2392 3.03379 -53.0052 -85.9674 48.8764
lowerback 7.8332 2.51127 -3.4475
upperback 6.31244 2.90522 -3.11909
thorax 2.1459 1.28673 -1.46739
lowerneck -9.54342 3.87154 5.85219
upperneck 24.2024 3.87899 -0.287885
head 9.31839 2.12877 -0.695851
rclavicle 3.1408e-014 5.56597e-015
rhumerus -30.1935 10.6916 -93.7385
rradius 40.6213
rwrist -22.555
rhand -18.4109 1.41826
rfingers 7.12502
rthumb 7.87376 -28.4151
lclavicle 3.1408e-014 5.56597e-015
lhumerus -30.1127 8.68415 80.0938
lradius 23.023
lwrist -9.47297
lhand -19.5125 14.3638
lfingers 7.12502
lthumb 6.81039 44.2342
rfemur -12.685 -0.0499536 19.3491
rtibia 71.3411
rfoot -10.897 -20.4814
rtoes -17.4154
lfemur -7.56542 -8.55645 -26.7068
ltibia 29.1912
lfoot -17.6972 11.805
ltoes -8.05342
99
root 10.806 15.2398 3.09709 -52.4273 -85.6962 48.2547
lowerback 7.92622 2.33664 -3.70072
upperback 6.37489 2.65206 -3.05818
thorax 2.14582 1.14804 -1.25084
lowerneck -9.13461 3.9323 5.87956
upperneck 24.1629 4.01137 -0.439017
head 9.23549 2.1739 -0.745689
rclavicle 3.18055e-015 -6.36111e-015
rhumerus -30.3156 10.1318 -93.4964
rradius 39.9339
rwrist -22.4568
rhand -18.4057 1.6567
rfingers 7.12502
rthumb 7.87879 -28.1765
lclavicle 3.18055e-015 -6.36111e-015
lhumerus -28.3796 6.03857 81.5158
lradius 23.9463
lwrist -8.32529
lhand -19.9387 14.6034
lfingers 7.12502
lthumb 6.39897 44.4867
rfemur -15.9666 0.346126 19.6796
rtibia 71.8752
rfoot -12.4164 -20.4847
rtoes -18.3439
lfemur -5.87361 -8.6268 -27.386
ltibia 28.6036
lfoot -18.344 12.0176
ltoes -7.93705
100
root 10.5054 15.2322 3.15708 -52.3526 -85.3942 48.1645
lowerback 8.0025 2.18156 -3.99373
upperback 6.41164 2.42316 -3.01429
thorax 2.13025 1.0211 -1.03051
lowerneck -8.7637 3.98705 5.88898
upperneck 24.1785 4.12615 -0.55775
head 9.17769 2.2128 -0.782727
rclavicle 1.21259e-014 -2.46493e-014
rhumerus -30.4842 9.49595 -93.2239
rradius 39.2356
rwrist -22.2581
rhand -18.1977 1.79538
rfingers 7.12502
rthumb 8.07953 -28.0302
lclavicle 1.21259e-014 -2.46493e-014
lhumerus -26.7685 3.38024 82.6966
lradius 25.0808
lwrist -6.97393
lhand -20.1974 14.8728
lfingers 7.12502
lthumb 6.14929 44.7635
rfemur -19.0474 0.930609 19.9533
rtibia 71.5681
rfoot -13.9644 -20.7246
rtoes -19.0175
lfemur -4.20139 -8.70883 -28.1162
ltibia 28.0106
lfoot -18.986 12.2872
ltoes -7.78062
